<?xml version="1.0" encoding="UTF-8"?>
<svg width="1135px" height="456px" viewBox="0 0 1135 456" version="1.1" xmlns="http://www.w3.org/2000/svg" xmlns:xlink="http://www.w3.org/1999/xlink">
    <!-- Generator: Sketch 46.2 (44496) - http://www.bohemiancoding.com/sketch -->
    <title>ntnui</title>
    <desc>Created with Sketch.</desc>
    <defs></defs>
    <g id="Page-1" stroke="none" stroke-width="1" fill="none" fill-rule="evenodd">
        <g id="ntnui" fill-rule="nonzero">
            <g id="#ffff01ff" transform="translate(222.000000, 155.000000)" fill="#FFFF01">
                <path d="M0.84,1.09 C14.79,0.99 28.77,0.68 42.7,1.25 C59.54,25.8 76.13,50.53 92.85,75.16 C93.5,75.95 94.27,76.64 95.13,77.23 C95.67,51.92 95.32,26.57 95.3,1.24 C109.49,0.69 123.73,0.99 137.93,1.08 C138.18,30.72 137.97,60.36 138.04,90 C137.95,108.05 138.22,126.11 137.91,144.16 C125.95,144.72 113.96,144.19 102,144.42 C99.77,144.32 97.42,144.71 95.3,143.92 C90.56,138.13 87,131.47 82.5,125.5 C71.51,109.17 60.39,92.93 49.39,76.61 C47.43,73.66 45.63,70.57 43.22,67.95 C42.68,93.35 43.32,118.76 42.91,144.16 C28.9,144.56 14.84,144.51 0.83,144.18 C0.32,129.8 0.77,115.39 0.62,101 C0.62,72 0.61,43 0.62,14 C0.64,9.69 0.43,5.38 0.84,1.09 Z" id="Shape"></path>
                <path d="M157.07,1.07 C201.76,0.92 246.47,0.87 291.16,1.09 C291.54,13.01 291.53,24.99 291.16,36.91 C276.21,37.34 261.24,36.63 246.3,37.25 C246.49,67.5 246.33,97.75 246.38,128 C246.29,133.39 246.63,138.79 246.17,144.17 C238.45,144.67 230.72,144.25 223,144.39 C216.03,144.25 209.04,144.68 202.09,144.16 C201.76,108.48 202.14,72.78 201.9,37.1 C186.96,36.85 172.01,37.22 157.07,36.93 C156.92,24.98 156.89,13.02 157.07,1.07 Z" id="Shape"></path>
                <path d="M311.83,1.08 C325.79,0.94 339.79,0.79 353.75,1.16 C369.5,24.44 385.36,47.66 401.04,70.99 C402.6,73.17 403.92,75.61 406.12,77.26 C406.69,51.94 406.32,26.58 406.3,1.24 C420.49,0.69 434.73,0.99 448.93,1.08 C449.15,31.38 448.95,61.69 449.02,92 C448.85,109.56 449.37,127.15 448.76,144.7 C434.66,144.46 420.57,144.77 406.48,144.56 C395.89,128.81 385.12,113.18 374.56,97.42 C367.55,87.71 361.45,77.35 354.18,67.85 C353.77,93.28 354.28,118.73 353.92,144.16 C339.91,144.55 325.85,144.52 311.83,144.18 C311.32,129.13 311.76,114.05 311.62,99 C311.62,70.66 311.61,42.33 311.62,14 C311.64,9.69 311.43,5.37 311.83,1.08 Z" id="Shape"></path>
                <path d="M478.07,1.08 C492.94,0.99 507.84,0.7 522.7,1.24 C522.5,29.82 522.68,58.4 522.6,86.98 C522.92,93.7 523.74,101.22 528.84,106.17 C534.08,112.09 542.5,113.66 550.06,112.92 C557.63,112.56 564.94,108 568.13,101.05 C569.61,97.57 570.68,93.84 570.65,90.04 C570.57,64.36 570.64,38.68 570.62,13 C570.61,9.03 570.44,5.05 570.84,1.09 C585.61,0.89 600.4,0.89 615.17,1.09 C615.68,29.71 615.22,58.37 615.4,87 C615.57,101.3 611.6,116.11 602.18,127.13 C596.6,134.06 589.12,139.42 580.86,142.69 C570.38,146.53 559.06,147.15 548,147.04 C532.74,146.8 516.41,146.21 503.08,137.88 C492.57,130.92 484.29,120.27 481.07,107.99 C479.34,101.12 477.77,94.12 477.95,86.99 C478.05,58.36 477.81,29.71 478.07,1.08 Z" id="Shape"></path>
                <path d="M646.84,1.08 C661.61,0.9 676.39,0.87 691.16,1.09 C691.68,28.71 691.23,56.37 691.38,84 C691.24,104.06 691.67,124.13 691.17,144.18 C676.41,144.53 661.59,144.54 646.83,144.17 C646.33,107.13 646.76,70.06 646.62,33 C646.77,22.36 646.31,11.71 646.84,1.08 Z" id="Shape"></path>
            </g>
            <g id="#018001ff" transform="translate(544.000000, 28.000000)" fill="#018001">
                <path d="M92.16,28.29 C156.64,4.32 226.7,-3 295.03,2.92 C356.83,8.5 418.38,25.79 471.29,58.79 C492.19,72.25 511.71,88.16 527.56,107.4 C539.18,121.93 549.31,137.93 555.29,155.64 C562.76,176.25 564.53,198.77 561.31,220.39 C557.33,246.58 544.82,270.81 528.28,291.25 C525.07,295.69 520.76,299.16 517.47,303.53 C515.16,306.51 512.35,309.03 509.39,311.33 C492.83,326.94 473.91,339.94 453.98,350.88 C446.89,354.49 439.77,358.04 432.64,361.58 C388.37,381.62 340.4,392.81 292.07,396.86 C282.09,398.06 272.01,397.69 262.01,398.61 C225.21,399.21 188.3,396.1 152.24,388.6 C116.48,380.93 81.36,369.21 49.16,351.72 C50.03,350.76 50.89,349.78 52,349.08 C59.17,344.04 65.64,338.11 72.31,332.44 C76.34,333.47 79.87,335.75 83.68,337.35 C129.44,357.44 179.26,366.9 228.97,369.71 C244.31,370.06 259.67,370.09 275.02,369.62 C304.93,367.57 334.81,363.65 363.82,355.91 C403.72,345.33 442.67,328.95 475.47,303.52 C482.02,298.8 487.59,292.93 493.85,287.86 C497.6,283.26 501.77,279.04 505.57,274.49 C520.14,256.73 530.85,235.24 533.49,212.24 C536.62,189.95 531.15,167.07 520.64,147.38 C510.08,128.14 495.12,111.55 477.95,97.97 C456.92,81.03 432.85,68.15 407.88,58.05 C375.9,45.24 342.11,37.3 307.97,33.02 C271.42,28.57 234.34,28.39 197.75,32.5 C154.5,37.45 111.74,48.54 72.39,67.36 C56.32,75.33 40.73,84.47 26.54,95.5 C25.25,96.48 23.31,97.33 21.92,96.05 C17.49,92.81 13.24,89.31 8.64,86.31 C5.88,84.39 2.73,83.02 0.34,80.6 C27.44,57.75 59.07,40.72 92.16,28.29 Z" id="Shape"></path>
            </g>
            <g id="#000000ff" fill="#000000">
                <path d="M318.27,1.29 C325.83,0.68 333.42,1.13 341,1 C348.58,1.13 356.18,0.67 363.74,1.3 C367.89,2.1 372.13,2.07 376.33,1.69 C377.87,1.88 379.41,2.08 380.96,2.28 C382.78,3.56 385.05,3.53 387.06,2.68 C388.69,2.81 390.33,2.96 391.97,3.1 C393.44,4.61 395.63,4.5 397.38,3.56 L398.24,3.69 L398.68,3.76 C399.2,3.84 400.25,4.01 400.77,4.1 C402.28,5.37 404.31,5.5 406.11,4.82 C406.81,4.9 408.2,5.06 408.89,5.14 C409.98,6.35 411.66,6.55 413.12,5.89 C413.81,5.95 415.2,6.07 415.89,6.14 C417,7.33 418.69,7.53 420.16,6.88 C420.59,6.95 421.45,7.09 421.88,7.16 C423.01,8.3 424.68,8.53 426.16,7.9 C426.59,7.96 427.45,8.08 427.88,8.15 C428.96,9.33 430.61,9.54 432.05,8.88 C432.41,8.92 433.13,9 433.49,9.05 C434.56,9.81 435.75,10.15 437.03,10.08 C437.51,10.04 438.46,9.97 438.94,9.93 C439.62,11.22 440.68,11.56 442.12,10.97 C442.57,10.99 443.45,11.02 443.89,11.04 C444.73,12.21 445.81,12.51 447.15,11.95 L447.89,12.19 C449.02,13.38 450.74,13.51 452.13,12.69 C453.75,13.13 455.37,13.58 456.99,14.04 C457.76,15.21 458.81,15.53 460.13,15.01 L460.91,15.06 C461.77,16.24 462.85,16.48 464.14,15.77 C465.69,16.26 467.25,16.74 468.81,17.24 C470.89,17.98 473.06,18.41 475.21,18.94 C476.48,19.26 477.77,19.57 479.05,19.94 C479.77,21.23 480.8,21.53 482.13,20.85 L482.73,21.23 C483.3,21.42 484.43,21.8 484.99,21.99 L485.6,22.12 C486.24,22.31 487.5,22.7 488.13,22.89 C492.55,23.84 496.81,25.36 501.04,26.93 C501.55,27.22 502.58,27.8 503.09,28.09 L503.9,28.01 C504.46,28.2 505.59,28.58 506.15,28.77 C512.16,30.99 518.15,33.3 523.97,35.98 C524.53,36.19 525.63,36.62 526.18,36.84 C540.63,42.75 554.4,50.14 567.97,57.83 C579.3,51.29 590.91,45.24 602.79,39.76 C603.35,39.58 604.48,39.21 605.04,39.02 C608.81,36.97 612.81,35.37 616.83,33.87 C617.38,33.64 618.47,33.19 619.02,32.96 C622.49,31.27 626.14,29.98 629.86,28.93 C630.4,28.68 631.47,28.18 632.01,27.93 C638.23,25.73 644.45,23.46 650.85,21.82 C651.41,21.6 652.52,21.18 653.08,20.96 L653.9,21.08 C654.43,20.81 655.49,20.26 656.01,19.99 C657.6,19.63 659.18,19.22 660.8,18.93 C661.4,18.73 662.62,18.34 663.22,18.15 C664.76,17.68 666.3,17.23 667.86,16.79 C669.14,17.47 670.22,17.23 671.09,16.07 L671.88,16 C673.2,16.52 674.26,16.2 675.07,15.04 L675.88,14.99 C677.2,15.52 678.26,15.2 679.08,14.04 L679.88,14.01 C681.19,14.54 682.24,14.2 683.01,13.01 C684.95,12.58 686.9,12.18 688.86,11.81 C690.17,12.52 691.22,12.25 692.02,10.99 C694.28,10.49 696.57,10.09 698.88,9.79 C700.18,10.48 701.26,10.24 702.14,9.06 C702.57,9.02 703.44,8.95 703.87,8.91 C705.32,9.54 706.98,9.3 708.12,8.15 C708.55,8.1 709.42,8 709.85,7.95 C711.27,8.57 712.33,8.23 713.04,6.96 C713.75,6.96 715.18,6.96 715.89,6.97 C717.35,7.52 719.01,7.26 720.1,6.08 C720.79,6.01 722.18,5.87 722.87,5.81 C724.29,6.51 725.98,6.34 727.1,5.16 C727.8,5.08 729.18,4.92 729.88,4.83 C731.6,5.52 733.56,5.4 735.06,4.23 C736.34,4.09 737.62,3.95 738.92,3.81 C740.61,4.54 742.58,4.44 744.05,3.22 C745.68,3.06 747.32,2.9 748.97,2.74 C750.98,3.54 753.26,3.54 755.06,2.21 C756.6,2 758.14,1.79 759.7,1.6 C763.87,2.11 768.09,2.05 772.23,1.29 C780.14,0.68 788.08,1.13 796,1 C803.24,1.13 810.51,0.69 817.74,1.3 C821.9,2.16 826.15,2.02 830.36,1.65 C831.49,1.84 832.62,2.04 833.77,2.24 C836.6,2.9 839.5,2.89 842.39,2.76 C843.04,2.89 844.34,3.15 845,3.28 C846.82,4.47 849.04,4.54 851.07,3.79 C852.34,3.9 853.62,4.02 854.92,4.15 C855.99,5.35 857.68,5.55 859.14,4.87 C859.83,4.96 861.22,5.14 861.91,5.23 C863.4,6.39 865.35,6.53 867.11,5.85 C867.81,5.9 869.2,6 869.9,6.06 C870.69,7.1 871.74,7.45 873.04,7.11 C873.77,7.06 875.23,6.95 875.96,6.89 C876.58,8.21 877.62,8.57 879.06,7.97 C879.42,7.98 880.12,8 880.47,8.01 C881.77,8.97 883.4,9.29 885,8.95 C889.09,9 893.08,9.99 897,11.11 C898.03,12.32 899.67,12.59 901.12,11.94 L901.91,12.03 C902.74,13.2 903.84,13.52 905.2,12.99 L905.95,13.34 C907.2,14.15 908.73,14.06 910.16,13.81 C912.92,14.46 915.68,15.19 918.45,15.85 C920.49,17.15 922.82,17.74 925.23,17.88 C926.49,18.22 927.76,18.58 929.04,18.95 C929.8,20.22 930.83,20.49 932.15,19.79 C934.48,20.4 936.78,21.11 939.07,21.91 C939.74,23.16 940.75,23.54 942.11,23.07 L942.94,22.96 C943.48,23.24 944.55,23.78 945.08,24.05 L945.95,23.96 C946.48,24.23 947.54,24.77 948.07,25.04 L948.9,24.95 C949.43,25.21 950.49,25.73 951.03,25.99 C954.07,26.79 957.06,27.78 960,28.92 C960.54,29.16 961.62,29.65 962.16,29.89 C964.1,30.55 966.05,31.23 967.99,31.94 C968.54,32.17 969.63,32.63 970.17,32.86 C977.24,35.61 984.19,38.64 991.03,41.92 C995.86,43.98 1000.7,46.06 1005.19,48.82 C1024.37,59.14 1043.22,70.53 1059.65,84.92 C1060.01,85.15 1060.74,85.62 1061.11,85.85 C1064.83,89.14 1068.86,92.09 1072.27,95.73 C1079.25,103.11 1087.22,109.6 1093.1,117.96 C1093.59,118.8 1094.2,119.56 1094.94,120.24 C1100.4,126.21 1104.71,133.14 1109.16,139.87 C1109.37,140.25 1109.8,141.01 1110.01,141.39 C1111.17,143.12 1112.21,144.92 1113.2,146.77 C1112.75,148.17 1113.38,150.07 1115.13,149.99 C1116.72,154.01 1118.96,157.73 1121.13,161.47 L1121.26,161.74 C1122.38,164.37 1123.19,167.13 1124.09,169.86 C1124.33,170.4 1124.82,171.47 1125.07,172.01 C1126.3,175.17 1127.37,178.4 1128.18,181.7 C1128.32,182.33 1128.62,183.59 1128.76,184.22 L1129.05,184.89 C1129.29,185.43 1129.78,186.5 1130.02,187.04 C1130.42,188.97 1130.81,190.9 1131.2,192.85 C1130.46,194.15 1130.72,195.2 1131.99,196.01 C1132.58,198.27 1133.04,200.57 1133.38,202.9 C1132.44,204.22 1132.55,205.98 1133.81,207.07 C1133.85,207.48 1133.92,208.32 1133.96,208.73 C1134,211.71 1134.41,214.66 1135,217.58 L1135,237.42 C1134.33,242.13 1134.15,246.89 1133.74,251.63 C1133.48,252.74 1133.22,253.85 1132.97,254.96 C1131.79,255.75 1131.47,256.81 1132,258.13 C1131.99,258.57 1131.97,259.46 1131.96,259.9 C1130.79,260.69 1130.47,261.76 1130.98,263.1 L1131.01,263.89 C1129.74,264.66 1129.47,265.71 1130.2,267.02 L1129.79,267.65 C1129.6,268.25 1129.24,269.46 1129.05,270.07 C1129.04,270.53 1129.02,271.44 1129,271.89 C1128.74,272.44 1128.21,273.54 1127.95,274.08 L1128.04,274.97 C1127.76,275.52 1127.22,276.62 1126.94,277.17 L1126.89,277.97 C1125.59,279.36 1125.05,281.18 1125.14,283.06 C1124.49,285.81 1123.38,288.41 1122.2,290.96 C1121.92,291.47 1121.38,292.48 1121.11,292.99 L1120.81,293.61 C1120.68,294.03 1120.41,294.86 1120.27,295.27 C1111.82,313.6 1100.13,330.34 1086.7,345.35 C1086.62,345.44 1086.46,345.62 1086.39,345.71 C1084.74,347.6 1083.07,349.48 1081.29,351.25 C1054.47,378.25 1022.19,399.59 987.6,415.32 C987.5,415.37 987.3,415.47 987.2,415.51 C978.63,419.37 970.02,423.14 961.12,426.15 C960.57,426.36 959.46,426.8 958.91,427.01 L958.09,426.92 C957.59,427.23 956.59,427.84 956.08,428.14 C953.79,428.89 951.48,429.57 949.15,430.14 C948.53,430.35 947.27,430.76 946.65,430.97 C943.7,432.61 940.39,433.42 937.13,434.16 C936.57,434.39 935.46,434.84 934.9,435.06 L934.07,434.97 C932.75,434.49 931.68,434.81 930.86,435.95 L930.19,436.13 C928.23,436 926.35,436.57 924.94,437.93 C924.5,437.95 923.64,437.98 923.2,438 C922.64,438.24 921.52,438.72 920.96,438.95 C917.75,439.85 914.53,440.72 911.22,441.12 C910.61,441.32 909.38,441.72 908.77,441.93 C906.9,442.39 905.02,442.82 903.15,443.23 C901.85,442.49 900.79,442.72 899.96,443.93 C896.08,445 892.12,445.8 888.12,446.17 C886.8,445.5 885.71,445.76 884.86,446.95 C884.43,446.98 883.57,447.05 883.13,447.09 C881.65,446.45 879.99,446.69 878.88,447.86 C878.44,447.92 877.58,448.05 877.14,448.11 C875.54,447.45 873.77,447.82 872.62,449.11 L871.74,449.23 L871.28,449.28 L870.42,449.33 C868.96,448.66 866.84,448.37 865.97,450.07 C865.24,450.02 863.78,449.93 863.05,449.88 C861.62,449.59 860.29,450.25 859,450.67 C857.69,450.82 856.39,450.98 855.1,451.15 C853.67,450.42 851.97,450.61 850.93,451.87 C849.29,451.96 847.67,452.06 846.06,452.18 C844.34,451.44 842.37,451.52 840.96,452.8 C838.96,452.93 836.97,453.09 835,453.27 C832.67,452.48 830.13,452.36 828.01,453.74 C825.43,453.88 822.86,454.05 820.3,454.31 C813.79,454.12 807.22,453.67 800.77,454.72 C796.6,455.11 792.41,455.15 788.26,454.72 C781.8,453.59 775.21,454.2 768.69,454.32 C766.54,454.07 764.39,453.86 762.25,453.67 C759.3,453.11 756.3,453.11 753.33,453.46 L752.58,453.38 L752.19,453.32 C751.42,453.18 749.86,452.9 749.09,452.76 C747.22,451.53 744.94,451.43 742.91,452.26 C741.67,452.09 740.45,451.93 739.23,451.76 C737.64,450.85 735.82,450.68 734.06,451.07 C732.73,451.02 731.4,450.96 730.09,450.9 C729.01,449.64 727.31,449.45 725.87,450.11 C725.18,450.05 723.8,449.93 723.11,449.87 C722,448.68 720.34,448.47 718.89,449.07 C718.18,449.06 716.75,449.05 716.04,449.04 C715.36,447.85 714.34,447.47 712.96,447.9 C712.23,447.94 710.76,448.04 710.03,448.08 C709.34,446.76 708.28,446.41 706.85,447.05 C706.42,447 705.55,446.9 705.12,446.86 C703.98,445.68 702.32,445.45 700.87,446.1 C700.43,446.06 699.55,445.99 699.12,445.96 C698.28,444.8 697.2,444.48 695.88,445.01 C695.44,445 694.57,445 694.14,445 C693.36,443.8 692.32,443.48 691,444.03 L690.36,443.93 C689.28,443.2 688.13,442.85 686.91,442.87 C686.45,442.91 685.52,442.98 685.06,443.01 C684.35,441.76 683.3,441.42 681.9,442.01 L681.08,441.99 C680.28,440.8 679.21,440.46 677.88,440.97 L677.07,441 C676.27,439.81 675.21,439.47 673.88,439.99 L673.07,439.98 C672.27,438.79 671.2,438.47 669.88,439.01 L669.09,438.93 C668.21,437.76 667.13,437.52 665.85,438.22 C664.54,437.82 663.24,437.43 661.96,437.04 C661.19,435.78 660.16,435.48 658.86,436.15 C655.18,435.26 651.55,434.19 647.94,433.1 C647.42,432.81 646.39,432.23 645.87,431.94 L645.03,432.03 C644.5,431.76 643.44,431.22 642.91,430.95 L642.04,431.04 C641.51,430.76 640.44,430.22 639.91,429.95 L639.04,430.04 C638.52,429.76 637.46,429.21 636.93,428.94 L636.1,429.04 C635.55,428.81 634.44,428.36 633.89,428.14 C631.92,427.46 629.96,426.77 628.01,426.06 C627.47,425.83 626.38,425.35 625.84,425.12 C619.12,422.72 612.38,420.27 606.04,416.99 C605.49,416.79 604.37,416.4 603.81,416.2 C600.44,414.7 597.09,413.17 593.79,411.55 C593.68,411.49 593.47,411.38 593.36,411.33 C587.59,408.18 581.62,405.43 575.84,402.32 C575.38,401.96 574.44,401.24 573.98,400.88 C571.68,399.92 569.43,398.13 566.81,398.53 C566.69,398.57 566.45,398.63 566.33,398.67 C565.28,399.15 564.24,399.67 563.22,400.22 C562.83,400.42 562.06,400.8 561.67,400.99 C555.85,405.04 549.25,407.72 543,411 C537.23,414.09 531.19,416.59 525.19,419.16 C524.63,419.38 523.53,419.8 522.97,420.01 C518.83,422.02 514.53,423.68 510.16,425.13 C509.62,425.36 508.53,425.83 507.99,426.07 C506.24,426.86 504.48,427.65 502.68,428.3 L502.37,428.4 C501.29,428.65 500.21,428.88 499.13,429.11 C498.58,429.34 497.47,429.81 496.92,430.05 L496.05,429.96 C495.5,430.23 494.4,430.76 493.85,431.03 L493.07,431.06 C491.15,430.81 488.99,431.14 487.97,432.99 L487.13,432.88 C485.82,432.48 484.8,432.87 484.08,434.07 C481.8,434.88 479.48,435.59 477.14,436.21 C475.83,435.49 474.8,435.76 474.04,437.04 C471.72,437.78 469.39,438.47 467.06,439.17 C465.65,438.45 463.99,438.64 462.88,439.81 L462.11,439.87 C461,439.89 459.96,440.18 458.99,440.72 L458.23,441.05 C456.9,440.45 455.83,440.74 454.99,441.92 C453.36,442.36 451.74,442.8 450.12,443.24 C448.73,442.4 447.01,442.62 445.99,443.91 C444.04,444.37 442.09,444.81 440.14,445.24 C438.85,444.49 437.78,444.71 436.92,445.91 C434.3,446.45 431.67,446.97 429,447.08 C427.4,446.69 425.76,447.01 424.45,447.99 C424.1,448.03 423.41,448.1 423.07,448.14 C421.63,447.45 419.96,447.65 418.88,448.87 C418.45,448.93 417.59,449.06 417.16,449.12 C415.69,448.45 414,448.65 412.89,449.85 C412.2,449.93 410.81,450.09 410.12,450.17 C408.37,449.46 406.41,449.59 404.92,450.77 C404.22,450.87 402.82,451.08 402.12,451.18 C400.39,450.46 398.44,450.59 396.94,451.76 C395.64,451.91 394.35,452.08 393.07,452.27 C390.93,451.46 388.54,451.49 386.68,452.94 L385.9,453.15 L385.45,453.21 C384.69,453.24 383.16,453.29 382.4,453.31 C379.5,453.03 376.59,453.09 373.74,453.71 C370.91,453.89 368.08,454.08 365.26,454.33 C359.42,454.23 353.52,453.62 347.74,454.72 C343.58,455.15 339.39,455.11 335.23,454.71 C329.12,453.67 322.9,454.19 316.74,454.32 C313.83,454.06 310.9,453.9 307.98,453.75 C305.86,452.36 303.32,452.48 301.01,453.27 C299.02,453.09 297.03,452.93 295.05,452.8 C293.62,451.51 291.64,451.44 289.94,452.19 C288.31,452.05 286.68,451.91 285.06,451.79 C283.58,450.55 281.61,450.46 279.88,451.18 C279.19,451.1 277.8,450.94 277.11,450.85 C276.01,449.66 274.36,449.45 272.91,450.05 C271.62,450.02 270.32,450.02 269.03,450.03 C268.33,448.76 267.28,448.43 265.87,449.06 C265.18,449.01 263.79,448.91 263.1,448.86 C261.98,447.67 260.3,447.45 258.84,448.1 C258.41,448.04 257.55,447.91 257.12,447.84 C255.98,446.68 254.33,446.45 252.87,447.08 C252.44,447.05 251.57,446.98 251.14,446.94 C250.28,445.75 249.2,445.5 247.89,446.17 C243.86,445.82 239.9,445 236.02,443.89 C234.99,442.62 233.29,442.4 231.9,443.19 C225.24,441.51 218.51,440.09 211.95,438.05 C211.16,436.76 210.11,436.49 208.81,437.26 C207.57,436.79 206.33,436.35 205.12,435.85 C204.12,435.28 203.05,435.01 201.91,435.04 C197.93,434.38 194.18,432.88 190.37,431.62 C185.94,430.07 181.35,428.92 177.11,426.86 C176.16,426.3 175.14,425.97 174.05,425.87 C173.15,425.57 172.26,425.24 171.39,424.89 C171.03,424.75 170.3,424.46 169.94,424.32 L169.16,423.99 C168.59,423.79 167.46,423.38 166.89,423.18 C163.56,421.9 160.25,420.55 157.03,419.01 C156.48,418.81 155.37,418.4 154.81,418.19 C122.9,404.54 92.99,386.05 66.97,363.04 C44.66,343 25.74,318.79 13.76,291.16 C13.75,290.72 13.72,289.83 13.7,289.38 L12.93,288.89 C12.7,288.53 12.23,287.79 12,287.43 L11.87,287.14 L11.58,286.42 L11.98,285.54 C11.73,285.16 11.25,284.41 11,284.03 C9.44,280.12 8.17,276.1 6.87,272.1 C7.52,270.79 7.24,269.75 6.01,268.97 C5.57,267.02 5.17,265.05 4.9,263.07 C5.06,261.85 4.84,260.74 4.21,259.75 L3.78,259.1 C4.78,257.73 4.2,255.99 3.15,254.88 C3.08,254.45 2.94,253.58 2.88,253.15 C3.54,251.69 3.34,250.01 2.15,248.9 C2.06,248.2 1.87,246.8 1.78,246.1 C2.57,244.06 2.47,241.81 1.2,240 C0.84,231.69 0.94,223.36 1.14,215.04 C2.49,213.64 2.56,211.63 1.81,209.92 C1.93,208.64 2.04,207.36 2.15,206.09 C3.36,204.98 3.57,203.26 2.79,201.85 C2.92,201.46 3.19,200.68 3.32,200.29 C3.78,199.19 4.01,198.05 4.01,196.86 C4.05,196.48 4.12,195.71 4.16,195.33 C4.86,194.25 5.15,193.09 5.01,191.84 L4.95,191.05 C6.37,190.28 6.63,189.23 5.72,187.88 L6.21,187.2 C6.39,186.6 6.73,185.4 6.91,184.8 C6.92,184.37 6.94,183.51 6.95,183.08 C7.23,182.54 7.77,181.46 8.05,180.93 L7.96,180.05 C8.23,179.52 8.77,178.45 9.05,177.92 L8.96,177.05 C9.24,176.52 9.79,175.46 10.07,174.93 L9.98,174.09 C10.19,173.53 10.61,172.41 10.82,171.85 C11.22,170.91 11.62,169.97 12.02,169.05 C12.21,168.49 12.59,167.36 12.78,166.8 C13.51,165.2 14.25,163.61 15,162.03 C15.2,161.47 15.6,160.36 15.81,159.8 C16.98,157.04 18.23,154.3 19.72,151.69 C27.79,137.28 37.19,123.54 48.25,111.25 C58.11,101.54 67.47,91.27 78.38,82.7 C78.47,82.62 78.65,82.48 78.74,82.41 C80.76,80.83 82.83,79.34 84.9,77.85 C85.27,77.62 86.01,77.16 86.37,76.93 C91.54,72.45 97.3,68.74 103,64.99 C110.51,60.33 117.91,55.42 125.92,51.64 C126.26,51.46 126.95,51.08 127.29,50.9 C127.69,50.63 128.49,50.1 128.9,49.84 C129.27,49.63 130.02,49.2 130.39,48.99 C137.84,44.55 145.98,41.49 153.8,37.81 C154.36,37.61 155.47,37.21 156.03,37.01 C157.61,36.25 159.2,35.51 160.8,34.78 C161.36,34.59 162.48,34.21 163.05,34.02 C163.96,33.61 164.88,33.22 165.8,32.83 C166.36,32.62 167.48,32.22 168.03,32.01 C168.95,31.62 169.88,31.23 170.8,30.85 C171.35,30.62 172.45,30.16 172.99,29.93 C174.23,29.56 175.46,29.19 176.71,28.84 C177.32,28.66 178.54,28.29 179.15,28.11 C179.56,27.82 180.39,27.22 180.8,26.93 C181.97,27.05 183.08,26.83 184.13,26.29 L184.86,26.03 C185.41,25.76 186.5,25.24 187.04,24.97 L187.91,25.06 C188.44,24.79 189.5,24.25 190.03,23.98 L190.87,24.06 C191.39,23.77 192.41,23.17 192.92,22.88 C194.22,22.52 195.53,22.17 196.84,21.83 C198.14,22.48 199.18,22.18 199.96,20.96 C201.24,20.56 202.51,20.18 203.8,19.81 C204.37,19.62 205.5,19.24 206.07,19.06 C207.67,18.65 209.26,18.24 210.87,17.86 C212.18,18.49 213.21,18.18 213.95,16.93 C219.2,15.3 224.57,14.12 229.9,12.8 C231.29,13.58 233,13.35 234.01,12.08 C235.95,11.54 237.91,11.07 239.88,10.63 C241.14,11.44 242.23,11.25 243.15,10.09 C243.58,10.04 244.44,9.95 244.87,9.91 C246.32,10.53 247.99,10.3 249.11,9.13 C249.54,9.09 250.41,9.01 250.84,8.96 C252.17,9.49 253.26,9.19 254.12,8.05 L254.88,7.85 C256.62,8.53 258.57,8.36 260.09,7.23 C260.78,7.15 262.17,7.01 262.87,6.94 C264.28,7.56 265.34,7.24 266.05,5.96 C266.76,5.95 268.18,5.95 268.89,5.95 C270.34,6.52 272,6.31 273.09,5.13 C274.36,5.05 275.63,4.96 276.9,4.88 C278.33,5.55 280.01,5.35 281.08,4.13 C282.36,4.03 283.63,3.93 284.91,3.83 C286.63,4.53 288.59,4.42 290.06,3.22 C291.6,3.09 293.15,2.96 294.7,2.81 C302.55,2.2 310.45,2.25 318.27,1.29 L318.27,1.29 Z M325.92,29.55 C315.71,29.57 305.52,30.2 295.37,31.31 C266.34,33.82 237.57,39.32 209.62,47.57 C197.79,51.27 185.75,54.42 174.39,59.48 C145.11,71.17 117.22,86.75 92.9,106.89 C71.33,124.97 52.43,146.88 40.88,172.74 C38.65,179.23 35.85,185.52 34.1,192.17 C29.64,208.64 27.67,225.97 30.07,242.94 C31.81,259.73 37.29,275.96 45.12,290.86 C48.01,295.26 49.11,300.56 52.19,304.85 C54.79,309.15 58.66,312.45 61.56,316.52 C65.04,321.34 69.42,325.43 72.59,330.47 C76.61,334.76 80.62,339.21 85.68,342.31 C92.68,348.7 100.19,354.54 107.83,360.14 C110.44,362.16 112.6,364.79 115.58,366.32 C123.73,370.16 131.28,375.14 138.81,380.05 C147.87,384.82 157.08,389.3 166.48,393.38 C170.53,395.51 174.97,396.64 179.39,397.74 C222.44,414.22 268.2,423.17 314.17,425.72 C358.81,428.03 403.83,424.67 447.42,414.61 C461.03,411.73 474.26,407.39 487.61,403.53 C524.78,391.09 560.45,372.91 590.55,347.63 C590.59,344.55 586.37,343.56 584.45,341.61 C579.44,337.11 573.26,334.35 568,330.21 C563.16,333.64 558.5,337.33 553.46,340.5 C539.96,349.94 525.2,357.36 510.32,364.36 C503.12,367.37 496.06,370.91 488.43,372.73 C485.55,373.48 483.23,375.55 480.37,376.37 C439.67,389.94 396.85,396.93 354,397.92 C338.32,397.74 322.58,398.53 306.96,396.82 C295.78,396.27 284.67,394.88 273.6,393.3 C251.16,389.91 228.76,385.37 207.34,377.77 C163.52,363.76 121.19,341.41 89.84,307.15 C82.59,297.88 75.3,288.48 70.14,277.83 C60.85,261.59 56.92,242.6 57.38,224 C58.31,211.99 59.67,199.5 65.73,188.85 C68.57,182.13 71.84,175.61 74.99,169.03 C79.51,161.43 84.87,154.31 90.86,147.8 C96.17,143.15 101.08,138.06 105.77,132.78 C119.11,121.05 133.87,111 149.38,102.38 C153.8,99.95 158.19,97.37 162.99,95.75 C174.87,91.38 185.6,84.36 197.78,80.71 C213,75.22 228.64,71 244.43,67.46 C302.38,55.15 362.63,54.08 420.98,64.2 C435.75,66.91 450.62,69.76 464.71,75.1 C471.89,77.44 479.04,79.93 486.42,81.57 C496.74,85.2 506.91,89.33 516.73,94.18 C518.54,95.24 520.72,94.46 522.1,93.06 C527.69,87.93 533.57,83.12 539.58,78.49 C540.51,77.62 542.03,76.87 541.65,75.34 C534.62,70.44 526.27,68.16 518.69,64.32 C470.87,43.36 418.97,32.6 366.97,29.73 C353.28,29.75 339.59,27.9 325.92,29.55 L325.92,29.55 Z M636.16,56.29 C603.07,68.72 571.44,85.75 544.34,108.6 C546.73,111.02 549.88,112.39 552.64,114.31 C557.24,117.31 561.49,120.81 565.92,124.05 C567.31,125.33 569.25,124.48 570.54,123.5 C584.73,112.47 600.32,103.33 616.39,95.36 C655.74,76.54 698.5,65.45 741.75,60.5 C778.34,56.39 815.42,56.57 851.97,61.02 C886.11,65.3 919.9,73.24 951.88,86.05 C976.85,96.15 1000.92,109.03 1021.95,125.97 C1039.12,139.55 1054.08,156.14 1064.64,175.38 C1075.15,195.07 1080.62,217.95 1077.49,240.24 C1074.85,263.24 1064.14,284.73 1049.57,302.49 C1045.77,307.04 1041.6,311.26 1037.85,315.86 C1031.59,320.93 1026.02,326.8 1019.47,331.52 C986.67,356.95 947.72,373.33 907.82,383.91 C878.81,391.65 848.93,395.57 819.02,397.62 C803.67,398.09 788.31,398.06 772.97,397.71 C723.26,394.9 673.44,385.44 627.68,365.35 C623.87,363.75 620.34,361.47 616.31,360.44 C609.64,366.11 603.17,372.04 596,377.08 C594.89,377.78 594.03,378.76 593.16,379.72 C625.36,397.21 660.48,408.93 696.24,416.6 C732.3,424.1 769.21,427.21 806.01,426.61 C816.01,425.69 826.09,426.06 836.07,424.86 C884.4,420.81 932.37,409.62 976.64,389.58 C983.77,386.04 990.89,382.49 997.98,378.88 C1017.91,367.94 1036.83,354.94 1053.39,339.33 C1056.35,337.03 1059.16,334.51 1061.47,331.53 C1064.76,327.16 1069.07,323.69 1072.28,319.25 C1088.82,298.81 1101.33,274.58 1105.31,248.39 C1108.53,226.77 1106.76,204.25 1099.29,183.64 C1093.31,165.93 1083.18,149.93 1071.56,135.4 C1055.71,116.16 1036.19,100.25 1015.29,86.79 C962.38,53.79 900.83,36.5 839.03,30.92 C770.7,25 700.64,32.32 636.16,56.29 L636.16,56.29 Z M222.84,156.09 C222.43,160.38 222.64,164.69 222.62,169 C222.61,198 222.62,227 222.62,256 C222.77,270.39 222.32,284.8 222.83,299.18 C236.84,299.51 250.9,299.56 264.91,299.16 C265.32,273.76 264.68,248.35 265.22,222.95 C267.63,225.57 269.43,228.66 271.39,231.61 C282.39,247.93 293.51,264.17 304.5,280.5 C309,286.47 312.56,293.13 317.3,298.92 C319.42,299.71 321.77,299.32 324,299.42 C335.96,299.19 347.95,299.72 359.91,299.16 C360.22,281.11 359.95,263.05 360.04,245 C359.97,215.36 360.18,185.72 359.93,156.08 C345.73,155.99 331.49,155.69 317.3,156.24 C317.32,181.57 317.67,206.92 317.13,232.23 C316.27,231.64 315.5,230.95 314.85,230.16 C298.13,205.53 281.54,180.8 264.7,156.25 C250.77,155.68 236.79,155.99 222.84,156.09 L222.84,156.09 Z M379.07,156.07 C378.89,168.02 378.92,179.98 379.07,191.93 C394.01,192.22 408.96,191.85 423.9,192.1 C424.14,227.78 423.76,263.48 424.09,299.16 C431.04,299.68 438.03,299.25 445,299.39 C452.72,299.25 460.45,299.67 468.17,299.17 C468.63,293.79 468.29,288.39 468.38,283 C468.33,252.75 468.49,222.5 468.3,192.25 C483.24,191.63 498.21,192.34 513.16,191.91 C513.53,179.99 513.54,168.01 513.16,156.09 C468.47,155.87 423.76,155.92 379.07,156.07 L379.07,156.07 Z M533.83,156.08 C533.43,160.37 533.64,164.69 533.62,169 C533.61,197.33 533.62,225.66 533.62,254 C533.76,269.05 533.32,284.13 533.83,299.18 C547.85,299.52 561.91,299.55 575.92,299.16 C576.28,273.73 575.77,248.28 576.18,222.85 C583.45,232.35 589.55,242.71 596.56,252.42 C607.12,268.18 617.89,283.81 628.48,299.56 C642.57,299.77 656.66,299.46 670.76,299.7 C671.37,282.15 670.85,264.56 671.02,247 C670.95,216.69 671.15,186.38 670.93,156.08 C656.73,155.99 642.49,155.69 628.3,156.24 C628.32,181.58 628.69,206.94 628.12,232.26 C625.92,230.61 624.6,228.17 623.04,225.99 C607.36,202.66 591.5,179.44 575.75,156.16 C561.79,155.79 547.79,155.94 533.83,156.08 L533.83,156.08 Z M700.07,156.08 C699.81,184.71 700.05,213.36 699.95,241.99 C699.77,249.12 701.34,256.12 703.07,262.99 C706.29,275.27 714.57,285.92 725.08,292.88 C738.41,301.21 754.74,301.8 770,302.04 C781.06,302.15 792.38,301.53 802.86,297.69 C811.12,294.42 818.6,289.06 824.18,282.13 C833.6,271.11 837.57,256.3 837.4,242 C837.22,213.37 837.68,184.71 837.17,156.09 C822.4,155.89 807.61,155.89 792.84,156.09 C792.44,160.05 792.61,164.03 792.62,168 C792.64,193.68 792.57,219.36 792.65,245.04 C792.68,248.84 791.61,252.57 790.13,256.05 C786.94,263 779.63,267.56 772.06,267.92 C764.5,268.66 756.08,267.09 750.84,261.17 C745.74,256.22 744.92,248.7 744.6,241.98 C744.68,213.4 744.5,184.82 744.7,156.24 C729.84,155.7 714.94,155.99 700.07,156.08 L700.07,156.08 Z M868.84,156.08 C868.31,166.71 868.77,177.36 868.62,188 C868.76,225.06 868.33,262.13 868.83,299.17 C883.59,299.54 898.41,299.53 913.17,299.18 C913.67,279.13 913.24,259.06 913.38,239 C913.23,211.37 913.68,183.71 913.16,156.09 C898.39,155.87 883.61,155.9 868.84,156.08 Z" id="Shape"></path>
            </g>
            <g id="#fd0101ff" transform="translate(29.000000, 28.000000)" fill="#FD0101">
                <path d="M296.92,1.55 C310.59,-0.1 324.28,1.75 337.97,1.73 C389.97,4.6 441.87,15.36 489.69,36.32 C497.27,40.16 505.62,42.44 512.65,47.34 C513.03,48.87 511.51,49.62 510.58,50.49 C504.57,55.12 498.69,59.93 493.1,65.06 C491.72,66.46 489.54,67.24 487.73,66.18 C477.91,61.33 467.74,57.2 457.42,53.57 C450.04,51.93 442.89,49.44 435.71,47.1 C421.62,41.76 406.75,38.91 391.98,36.2 C333.63,26.08 273.38,27.15 215.43,39.46 C199.64,43 184,47.22 168.78,52.71 C156.6,56.36 145.87,63.38 133.99,67.75 C129.19,69.37 124.8,71.95 120.38,74.38 C104.87,83 90.11,93.05 76.77,104.78 C72.08,110.06 67.17,115.15 61.86,119.8 C55.87,126.31 50.51,133.43 45.99,141.03 C42.84,147.61 39.57,154.13 36.73,160.85 C30.67,171.5 29.31,183.99 28.38,196 C27.92,214.6 31.85,233.59 41.14,249.83 C46.3,260.48 53.59,269.88 60.84,279.15 C92.19,313.41 134.52,335.76 178.34,349.77 C199.76,357.37 222.16,361.91 244.6,365.3 C255.67,366.88 266.78,368.27 277.96,368.82 C293.58,370.53 309.32,369.74 325,369.92 C367.85,368.93 410.67,361.94 451.37,348.37 C454.23,347.55 456.55,345.48 459.43,344.73 C467.06,342.91 474.12,339.37 481.32,336.36 C496.2,329.36 510.96,321.94 524.46,312.5 C529.5,309.33 534.16,305.64 539,302.21 C544.26,306.35 550.44,309.11 555.45,313.61 C557.37,315.56 561.59,316.55 561.55,319.63 C531.45,344.91 495.78,363.09 458.61,375.53 C445.26,379.39 432.03,383.73 418.42,386.61 C374.83,396.67 329.81,400.03 285.17,397.72 C239.2,395.17 193.44,386.22 150.39,369.74 C145.97,368.64 141.53,367.51 137.48,365.38 C128.08,361.3 118.87,356.82 109.81,352.05 C102.28,347.14 94.73,342.16 86.58,338.32 C83.6,336.79 81.44,334.16 78.83,332.14 C71.19,326.54 63.68,320.7 56.68,314.31 C51.62,311.21 47.61,306.76 43.59,302.47 C40.42,297.43 36.04,293.34 32.56,288.52 C29.66,284.45 25.79,281.15 23.19,276.85 C20.11,272.56 19.01,267.26 16.12,262.86 C8.29,247.96 2.81,231.73 1.07,214.94 C-1.33,197.97 0.64,180.64 5.1,164.17 C6.85,157.52 9.65,151.23 11.88,144.74 C23.43,118.88 42.33,96.97 63.9,78.89 C88.22,58.75 116.11,43.17 145.39,31.48 C156.75,26.42 168.79,23.27 180.62,19.57 C208.57,11.32 237.34,5.82 266.37,3.31 C276.52,2.2 286.71,1.57 296.92,1.55 Z" id="Shape"></path>
            </g>
        </g>
    </g>
</svg>
