<?xml version="1.0" encoding="UTF-8"?>
<svg width="20px" height="20px" viewBox="0 0 20 20" version="1.1" xmlns="http://www.w3.org/2000/svg" xmlns:xlink="http://www.w3.org/1999/xlink">
    <!-- Generator: Sketch 47.1 (45422) - http://www.bohemiancoding.com/sketch -->
    <title>ic_account_circle_black_36px</title>
    <desc>Created with Sketch.</desc>
    <defs></defs>
    <g id="Page-1" stroke="none" stroke-width="1" fill="none" fill-rule="evenodd">
        <g id="ic_account_circle_black_36px" fill-rule="nonzero" fill="#007D32">
            <path d="M10,0 C4.48,0 0,4.48 0,10 C0,15.52 4.48,20 10,20 C15.52,20 20,15.52 20,10 C20,4.48 15.52,0 10,0 Z M10,3 C11.66,3 13,4.34 13,6 C13,7.66 11.66,9 10,9 C8.34,9 7,7.66 7,6 C7,4.34 8.34,3 10,3 Z M10,17.2 C7.29166667,17.2 4.8975,15.8631352 3.5,13.8369496 C3.5325,11.7585427 7.83333333,10 10,10 C12.1558333,10 16.4675,11.7585427 16.5,13.8369496 C15.1025,15.8631352 12.7083333,17.2 10,17.2 Z" id="Shape"></path>
        </g>
    </g>
</svg>