<?xml version="1.0" encoding="UTF-8"?>
<svg width="24px" height="20px" viewBox="0 0 24 20" version="1.1" xmlns="http://www.w3.org/2000/svg" xmlns:xlink="http://www.w3.org/1999/xlink">
    <!-- Generator: Sketch 47.1 (45422) - http://www.bohemiancoding.com/sketch -->
    <title>Group 3</title>
    <desc>Created with Sketch.</desc>
    <defs></defs>
    <g id="Page-1" stroke="none" stroke-width="1" fill="none" fill-rule="evenodd">
        <g id="Group-3" fill="#007D32">
            <path d="M16,9 C18.48625,9 20.5,6.98625 20.5,4.5 C20.5,2.01375 18.48625,0 16,0 C13.51375,0 11.5,2.01375 11.5,4.5 C11.5,6.98625 13.51375,9 16,9 Z M16,10 C13.33,10 8,12.1216667 8,16.3333333 L8,19.5 L24,19.5 L24,16.3333333 C24,12.1216667 18.67,10 16,10 Z" id="Shape" fill-rule="nonzero"></path>
            <polygon id="Path" points="10 8.15384615 7.14285714 8.15384615 7.14285714 4 2.85714286 4 2.85714286 8.15384615 0 8.15384615 5 13"></polygon>
        </g>
    </g>
</svg>