<?xml version="1.0" encoding="UTF-8"?>
<svg width="96px" height="88px" viewBox="0 0 96 88" version="1.1" xmlns="http://www.w3.org/2000/svg" xmlns:xlink="http://www.w3.org/1999/xlink">
    <!-- Generator: Sketch 47.1 (45422) - http://www.bohemiancoding.com/sketch -->
    <title>ic_group_black_32px</title>
    <desc>Created with Sketch.</desc>
    <defs></defs>
    <g id="Symbols" stroke="none" stroke-width="1" fill="none" fill-rule="evenodd">
        <g id="group" transform="translate(0.000000, -5.000000)" fill-rule="nonzero" fill="#007D32">
            <g id="ic_group_black_32px" transform="translate(0.000000, 5.000000)">
                <path d="M70.6813921,34 C79.8266341,34 87.1538462,26.63 87.1538462,17.5 C87.1538462,8.37 79.8266341,1 70.6813921,1 C61.53615,1 54.1538462,8.37 54.1538462,17.5 C54.1538462,26.63 61.53615,34 70.6813921,34 Z M30.2967767,33 C39.4420187,33 46.7692308,25.63 46.7692308,16.5 C46.7692308,7.37 39.4420187,0 30.2967767,0 C21.1515346,0 13.7692308,7.37 13.7692308,16.5 C13.7692308,25.63 21.1515346,33 30.2967767,33 Z M29.5384615,39 C19.7063736,39 0,48.2028125 0,67.4010417 L0,88 L59.0769231,88 L59.0769231,67.4010417 C59.0769231,48.2028125 39.3705495,39 29.5384615,39 Z M63.5706978,41.0423365 C62.2271981,41.0423365 59.2972252,40.8075482 57.6757601,41.0423365 C63.0497587,47.6164094 68.2034553,56.8514165 68.2034553,68.4343069 L68.2034553,88 L96,88 L96,68.4343069 C96,50.1990809 74.3650227,41.0423365 63.5706978,41.0423365 Z" id="Shape"></path>
            </g>
        </g>
    </g>
</svg>