<?xml version="1.0" encoding="UTF-8"?>
<svg width="13px" height="18px" viewBox="0 0 13 18" version="1.1" xmlns="http://www.w3.org/2000/svg" xmlns:xlink="http://www.w3.org/1999/xlink">
    <!-- Generator: Sketch 47.1 (45422) - http://www.bohemiancoding.com/sketch -->
    <title>Group</title>
    <desc>Created with Sketch.</desc>
    <defs>
        <path d="M6.5,8 C4.33642857,8 0,9.95 0,13.8333333 L0,18 L13,18 L13,13.8333333 C13,9.95 8.66357143,8 6.5,8 Z" id="path-1"></path>
    </defs>
    <g id="Symbols" stroke="none" stroke-width="1" fill="none" fill-rule="evenodd">
        <g id="hs">
            <g id="Group">
                <path d="M6.50584307,7 C8.4457429,7 10,5.43666667 10,3.5 C10,1.56333333 8.4457429,0 6.50584307,0 C4.56594324,0 3,1.56333333 3,3.5 C3,5.43666667 4.56594324,7 6.50584307,7 Z" id="Path" fill="#007D32"></path>
                <mask id="mask-2" fill="white">
                    <use xlink:href="#path-1"></use>
                </mask>
                <use id="Path" fill="#007D32" xlink:href="#path-1"></use>
                <g id="Group-2" mask="url(#mask-2)" stroke-linecap="square">
                    <g transform="translate(6.518717, 13.346108) rotate(36.000000) translate(-6.518717, -13.346108) translate(4.018717, 4.846108)">
                        <path d="M1.5,0.694230226 L1.5,15.9672952" id="Line" stroke="#F8E71C"></path>
                        <path d="M2.5,0.694230226 L2.5,15.9672952" id="Line-2" stroke="#000000"></path>
                        <path d="M3.5,0.694230226 L3.5,15.9672952" id="Line-3" stroke="#F8E71C"></path>
                    </g>
                </g>
            </g>
        </g>
    </g>
</svg>