<?xml version="1.0" encoding="UTF-8"?>
<svg width="22px" height="20px" viewBox="0 0 22 20" version="1.1" xmlns="http://www.w3.org/2000/svg" xmlns:xlink="http://www.w3.org/1999/xlink">
    <!-- Generator: Sketch 47.1 (45422) - http://www.bohemiancoding.com/sketch -->
    <title>Shape</title>
    <desc>Created with Sketch.</desc>
    <defs></defs>
    <g id="Page-1" stroke="none" stroke-width="1" fill="none" fill-rule="evenodd">
        <path d="M14,9.5 C16.48625,9.5 18.5,7.48625 18.5,5 C18.5,2.51375 16.48625,0.5 14,0.5 C11.51375,0.5 9.5,2.51375 9.5,5 C9.5,7.48625 11.51375,9.5 14,9.5 Z M5,8 L5,5 L3,5 L3,8 L0,8 L0,10 L3,10 L3,13 L5,13 L5,10 L8,10 L8,8 L5,8 Z M14,10.5 C11.33,10.5 6,12.6216667 6,16.8333333 L6,20 L22,20 L22,16.8333333 C22,12.6216667 16.67,10.5 14,10.5 Z" id="Shape" fill="#007D32" fill-rule="nonzero"></path>
    </g>
</svg>