<?xml version="1.0" encoding="utf-8"?>
<svg version="1.1" id="Layer_1" xmlns="http://www.w3.org/2000/svg" xmlns:xlink="http://www.w3.org/1999/xlink" x="0px" y="0px"
	 viewBox="0 0 494.1 202.9" style="enable-background:new 0 0 494.1 202.9;" xml:space="preserve">
<path d="M0.2,101.3C0.2,46.9,66.4,2.8,148,2.8s147.8,44.1,147.8,98.5s-66.2,98.5-147.8,98.5S0.2,155.7,0.2,101.3L0.2,101.3z" shape-rendering="optimizeQuality"/>
<ellipse cx="345" cy="101.3" rx="147.8" ry="98.5" shape-rendering="optimizeQuality"/>
<path fill="#EC1E24" d="M235.2,35.3C211.6,22.7,181.2,15,148,15C73.2,15,12.5,53.6,12.5,101.2s60.7,86.2,135.5,86.2
	c33.2,0,63.7-7.6,87.2-20.3c-23.6-17.5-38-40.6-38-65.9S211.6,52.8,235.2,35.3L235.2,35.3z" shape-rendering="optimizeQuality"/>
<path fill="#EC1E24" d="M197.2,101.3c0,25.4,14.4,48.5,38,65.9c29.5-15.8,48.2-39.5,48.2-65.9C283.4,74.8,197.2,75.9,197.2,101.3
	L197.2,101.3z" shape-rendering="optimizeQuality"/>
<path fill="#098040" d="M345,15.1c-33.2,0-63.7,7.6-87.2,20.3c23.6,17.5,38,40.6,38,65.9c0,25.4-14.4,48.5-38,65.9
	c23.6,12.6,54,20.3,87.2,20.3c74.8,0,135.5-38.6,135.5-86.2S419.8,15.1,345,15.1z" shape-rendering="optimizeQuality"/>
<path fill="#098040" d="M295.8,101.3c0-25.4-14.4-48.5-38-65.9c-29.5,15.8-48.2,39.5-48.2,65.9S295.8,126.6,295.8,101.3z" shape-rendering="optimizeQuality"/>
<ellipse cx="148" cy="101.3" rx="123.2" ry="73.9" shape-rendering="optimizeQuality"/>
<ellipse cx="345" cy="101.3" rx="123.2" ry="73.9" shape-rendering="optimizeQuality"/>
<path fill="#F6EB0F" d="M96.6,70.2h18l23.3,34.3V70.2H156v62.2h-18.2l-23.1-34.1v34.1H96.6V70.2z M164.5,70.2h58.3v15.4h-19.6v46.8H184
	V85.6h-19.6V70.2H164.5z M231.7,70.2h18l23.3,34.3V70.2h18.1v62.2H273l-23.2-34.1v34.1h-18.1V70.2z M344.3,70.2h19.2v37.1
	c0,3.7-0.6,7.2-1.7,10.4c-1.1,3.3-2.9,6.1-5.4,8.6c-2.4,2.4-5,4.2-7.7,5.2c-3.7,1.4-8.2,2.1-13.4,2.1c-3,0-6.3-0.2-9.9-0.6
	c-3.6-0.4-6.6-1.3-9-2.5c-2.4-1.3-4.6-3-6.6-5.4c-2-2.3-3.4-4.7-4.1-7.2c-1.2-4-1.8-7.5-1.8-10.5V70.2h19.2v38c0,3.4,0.9,6,2.8,8
	c1.9,1.9,4.4,2.9,7.8,2.9c3.3,0,5.9-0.9,7.7-2.8c1.9-1.9,2.8-4.5,2.8-8V70.2H344.3z M377.1,70.2h19.3v62.2h-19.3V70.2z" shape-rendering="optimizeQuality"/>
</svg>
