<?xml version="1.0" encoding="UTF-8"?>
<svg width="42px" height="42px" viewBox="0 0 42 42" version="1.1" xmlns="http://www.w3.org/2000/svg" xmlns:xlink="http://www.w3.org/1999/xlink">
    <!-- Generator: Sketch 47.1 (45422) - http://www.bohemiancoding.com/sketch -->
    <title>Group</title>
    <desc>Created with Sketch.</desc>
    <defs>
        <rect id="path-1" x="0" y="0" width="15" height="8" rx="1"></rect>
    </defs>
    <g id="Pencil" stroke="none" stroke-width="1" fill="none" fill-rule="evenodd">
        <g id="Group" transform="translate(18.500000, 23.000000) rotate(45.000000) translate(-18.500000, -23.000000) translate(11.000000, -2.000000)">
            <path d="M13.5,10.5 L13.5,38.5" id="Line" stroke="#707070" stroke-width="2" stroke-linecap="square"></path>
            <path d="M5.52512627,44.9454365 L9.26776695,45.1525433" id="Line-2" stroke="#707070" stroke-linecap="square"></path>
            <path d="M1.5,10.5 L1.5,38.5" id="Line" stroke="#707070" stroke-width="2" stroke-linecap="square"></path>
            <path d="M7.5,10.5 L7.5,38.5" id="Line" stroke="#707070" stroke-width="2" stroke-linecap="square"></path>
            <path d="M7.5,39 C8.39932752,39 9.53903272,41.7700858 10.4192946,43.4867258 C11.0061358,44.6311524 11.8663709,46.4817957 13,49.0386555 L2,49.0386555 C2.87154434,47.0052303 3.58560932,45.409266 4.14219493,44.2507628 C4.77276021,42.9382749 6.71908205,39 7.5,39 Z" id="Triangle" stroke="#707070" stroke-width="2" transform="translate(7.500000, 44.019328) rotate(180.000000) translate(-7.500000, -44.019328) "></path>
            <g id="Rectangle">
                <use fill="#007D32" fill-rule="evenodd" xlink:href="#path-1"></use>
                <rect stroke="#707070" stroke-width="1" x="0.5" y="0.5" width="14" height="7" rx="1"></rect>
            </g>
        </g>
    </g>
</svg>