<svg id="Layer_1" data-name="Layer 1" xmlns="http://www.w3.org/2000/svg" xmlns:xlink="http://www.w3.org/1999/xlink" viewBox="0 0 496.17 499.12"><defs><style>.cls-1{fill:#ffe167;}.cls-2{fill:#fff0b8;}.cls-3{fill:url(#radial-gradient);}.cls-4{fill:url(#radial-gradient-2);}.cls-5{fill:#44402f;}.cls-6{fill:#fff;}</style><radialGradient id="radial-gradient" cx="144.69" cy="248.99" r="25.18" gradientUnits="userSpaceOnUse"><stop offset="0.33" stop-color="#f6b1bb"/><stop offset="0.77" stop-color="#fcd791"/><stop offset="1" stop-color="#ffe680"/></radialGradient><radialGradient id="radial-gradient-2" cx="332.69" cy="247.99" r="25.18" xlink:href="#radial-gradient"/></defs><title>sun</title><path class="cls-1" d="M303.31.07c1.85-.47,3.18,1.77,3.7,3.62,3.11,11.11,1,21.86,0,33.06-1.69,18-2.87,36.09-3.35,54.18-.11,4.12-.49,11.15,3.05,14.13,5.89,5,14.25-2.66,18.68-6.2L375.12,59c1.65-1.33,3.51-2.72,5.63-2.62,2.82.12,4.88,3,5.12,5.81s-.87,5.55-2,8.15q-10.85,26-21.71,52c-1.83,4.4-3.44,10.11,0,13.41,2.83,2.72,7.38,2,11.2,1.17L390.69,133l17.23-3.9,39.53-8.95c2.75-.62,5.61-1.25,8.38-.69s5.45,2.64,5.75,5.45c.22,2.08-.85,4.06-1.93,5.85-4.09,6.8-8.82,13.2-13.55,19.58l-20.67,27.94c-3.28,4.43-10,12.35-9.79,18.13.32,9.61,16.88,10.44,24.06,10.88l33.56,2c2.57.15,5.25.34,7.44,1.67s3.7,4.19,2.64,6.53a7.61,7.61,0,0,1-3.22,3c-8.1,5-17.07,8.26-26,11.53l-27.83,10.22c-3.49,1.28-7.08,2.64-9.73,5.24s-4.07,6.84-2.33,10.13a13.14,13.14,0,0,0,4.2,4.16q14,10.17,28.09,20.28L465,295.36l28,20.05c2.89,2.07,6.15,5,5.37,8.48-.91,4-6.18,4.86-10.3,4.84l-66.27-.32c-5.72,0-11.49-.06-17.09,1.1-1.91.39-4,1.07-4.93,2.78s-.44,3.55.18,5.25c3.11,8.63,10.4,14.95,17.25,21q17.09,15.21,32.9,31.78a8.46,8.46,0,0,1,2.54,3.94c.57,2.9-2.13,5.62-5,6.19s-5.86-.4-8.65-1.36l-55.42-19a86.9,86.9,0,0,0-12.85-3.41c-6.7-1.2-18.8-7-19.5,4.9-.22,3.66,1.33,7.18,2.81,10.53q13.89,31.36,25.2,63.79a7.73,7.73,0,0,1,.63,4.32c-.57,2.4-3.36,3.73-5.82,3.51s-4.66-1.58-6.74-2.91q-25.89-16.58-50.52-35c-5-3.71-12-7.51-16.79-3.59-2.52,2-3.28,5.51-3.82,8.71a261.36,261.36,0,0,0-3.65,46.32c.05,5.27,1,23.71-9.6,18.81-3.06-1.41-4.91-4.51-6.59-7.43q-15-26.19-30.62-52c-2.45-4.05-6.66-8.72-11-6.83a9.24,9.24,0,0,0-3.51,3.27c-5.67,7.78-9.37,16.8-13,25.72L204,493.53c-.8,2-1.73,4.07-3.6,5.07-2.69,1.44-6.2-.23-7.83-2.81S190.7,490,190.5,487l-2.35-36.26c-.8-12.38-1.6-24.77-3.45-37-.43-2.84-1.15-6-3.64-7.49-3.57-2.08-7.91.84-11,3.61L159.79,419c-6.94,6.21-13.88,12.42-20.63,18.83-8.95,8.51-17.57,17-26.82,25.18-2.56,2.26-6,4.68-9.1,3.28-4-1.81-3.27-7.66-1.86-11.83L124.83,385a11.94,11.94,0,0,0,.91-4.77c-.33-3.78-4.32-6.4-8.12-6.55s-7.41,1.51-10.85,3.13L54.36,401.51c-2.33,1.09-4.77,2.21-7.34,2.12s-5.28-1.83-5.54-4.39a8,8,0,0,1,1.43-4.55c5.23-9.28,11.29-18.05,17.35-26.81L93,320.49c1.37-2,2.8-4.1,3-6.51.41-3.89-2.45-7.53-5.94-9.28s-7.51-2-11.41-2.28l-41-2.57c-9.26-.58-18.63-1.18-27.48-4-2.16-.68-4.53-1.72-5.31-3.85-1.31-3.55,2.56-6.7,5.88-8.52l56.41-30.91c1.84-1,3.8-2.14,4.7-4,1.8-3.78-1.53-8-4.94-10.4-6.37-4.51-13.87-7.09-21.26-9.61L26.46,222c-6.56-2.24-13.57-5.91-19.66-9.23-1.73-.94-3.56-2.07-4.23-3.92-.89-2.41.63-5.18,2.8-6.55s4.83-1.7,7.38-2L76.81,193c2.78-.32,5.71-.69,7.92-2.41,5.39-4.19,3-12.69.21-18.9l-20.7-45.41c-3.15-6.9-6.36-14.11-6.14-21.69a6.33,6.33,0,0,1,.82-3.38c1.86-2.77,6.11-1.73,9.15-.37q19.26,8.67,37.72,19c5.64,3.15,20.2,12.33,26.55,6.94,8.78-7.44-2.48-30.11-4.88-38.81L114.75,41.82c-.71-2.57-1-6.11,1.47-7.15a4.9,4.9,0,0,1,3.56.25c6.46,2.35,11.23,7.79,15.55,13.15,13,16.12,24.76,33.46,40.15,47.32,2.13,1.92,4.48,3.84,7.31,4.29C192.85,101.29,195.43,81.33,197,75q5.78-22.89,11.54-45.77c1.09-4.3,2.17-8.59,3.41-12.84.67-2.31,1.44-4.69,3.1-6.46,5.44-5.83,9.81,3.26,12,7.66q4.56,9.15,8.54,18.56c2.06,4.88,4,9.81,6,14.71q4.27,10.59,8.82,21.06c2.63,6.07,5.35,15.49,11.9,18.53,10.21,4.73,12-13.55,14.4-20.38l4.59-13.32L292.9,23.12a168.53,168.53,0,0,1,8.28-20.79c.48-.94,1.07-2,2.09-2.25Z" transform="translate(-2.31 -0.01)"/><circle class="cls-2" cx="247.69" cy="249.99" r="143"/><ellipse class="cls-3" cx="144.69" cy="248.99" rx="28" ry="22"/><ellipse class="cls-4" cx="332.69" cy="247.99" rx="28" ry="22"/><ellipse class="cls-5" cx="300.69" cy="222.49" rx="22" ry="26.5"/><ellipse class="cls-6" cx="306.69" cy="214.49" rx="9" ry="12.5"/><circle class="cls-6" cx="290.19" cy="234.49" r="5.5"/><ellipse class="cls-5" cx="173.69" cy="224.49" rx="22" ry="26.5"/><ellipse class="cls-6" cx="179.69" cy="216.49" rx="9" ry="12.5"/><circle class="cls-6" cx="163.19" cy="236.49" r="5.5"/><path d="M241,278c-18.35,0-33.45-10.95-34.89-24.82a2,2,0,0,1,2-2.18h0a2,2,0,0,1,2,1.82C211.35,264.65,224.73,274,241,274s29.65-9.35,30.9-21.18a2,2,0,0,1,2-1.82h0a2,2,0,0,1,2,2.18C274.45,267.05,259.35,278,241,278Z" transform="translate(-2.31 -0.01)"/></svg>